<svg xmlns="http://www.w3.org/2000/svg" viewBox="0 0 32 32" enable-background="new 0 0 32 32"><style>@-webkit-keyframes pulse { 0% {opacity: 0.1;} 15% {opacity: 1;} 70% {opacity: 0.1;} } @keyframes pulse { 0% {opacity: 0.1;} 15% {opacity: 1;} 70% {opacity: 0.1;} } .spark { opacity: 0.1; -webkit-animation-name: pulse; -webkit-animation-duration: 1s; -webkit-animation-direction: normal; -webkit-animation-timing-function: ease-out; -webkit-animation-iteration-count: infinite; animation-name: pulse; animation-duration: 1s; animation-direction: normal; animation-timing-function: ease-out; animation-iteration-count: infinite; } .spark1 { -webkit-animation-delay: 0; animation-delay: 0; } .spark2 { -webkit-animation-delay: 0.12s; animation-delay: 0.15s; } .spark3 { -webkit-animation-delay: 0.24s; animation-delay: 0.3s; }</style><g id="Outlined" fill="#889ba6"><path d="M19.016 2.088v-.002s-5.05-2.48-6.002-2.032c-.825.385-4.118 6.257-4.9 7.674l10.902-5.64zM8.256 7.43C4.276 9.455.666 11.374.44 11.78c-.512.918 1.607 6.127 1.607 6.127s8.79-1.788 11.663-4.465c2.866-2.672 5.296-11.32 5.305-11.354L8.257 7.428z" class="spark spark1"/><path d="M27.325 13.014l-.447 12.454c.003 0 4.672-3.133 4.76-4.18.08-.907-3.474-6.883-4.313-8.274zm.303.52c.237-4.482.383-8.6.144-9-.54-.9-6.11-1.67-6.11-1.67s-2.85 8.506-1.965 12.332c.883 3.826 7.182 10.272 7.182 10.272l.74-11.934z" class="spark spark2"/><path d="M2.726 20.758c0 .006.378 5.614 1.24 6.214.746.52 7.53.43 9.154.397L2.726 20.75zm12.488-1.082C11.46 18.528 2.726 20.76 2.726 20.76l9.96 6.615h.002c3.76 2.446 7.256 4.632 7.72 4.625 1.052-.017 4.504-4.457 4.504-4.457s-5.944-6.72-9.698-7.867z" class="spark spark3"/></g></svg>